<?xml version="1.0"?>
<svg version="1.1" xmlns="http://www.w3.org/2000/svg" width="400px" height="200px" style="border: dashed 2px #aaa"><path fill="#101314" d="M102.22119140625,107.90771484375q0-3.443359375,0.190185546875-6.806640625t0.470458984375-6.806640625q0.080078125-0.90087890625,0.10009765625-1.74169921875t0.190185546875-1.471435546875t0.6005859375-1.0009765625t1.331298828125-0.370361328125q0.58056640625,0,1.211181640625,0.2001953125t0.630615234375,0.94091796875q0,2.78271484375-0.230224609375,5.475341796875t-0.310302734375,5.355224609375q2.18212890625-2.46240234375,4.66455078125-4.594482421875t5.26513671875-4.214111328125q0.400390625-0.2802734375,1.02099609375-0.30029296875q0.2001953125,0,0.350341796875,0.02001953125t0.310302734375,0.06005859375q0.2001953125,0.080078125,0.410400390625,0.190185546875t0.210205078125,0.310302734375q0,0.16015625-0.18017578125,0.2802734375q-2.08203125,1.681640625-4.114013671875,3.42333984375t-3.873779296875,3.7236328125q0.240234375,0.46044921875,0.410400390625,0.86083984375t0.370361328125,0.86083984375q1.681640625,3.98388671875,2.872802734375,8.157958984375t2.532470703125,8.278076171875q0.1201171875,0.46044921875,0.350341796875,0.950927734375t0.430419921875,0.98095703125t0.350341796875,0.9208984375t0.150146484375,0.710693359375q0,0.3603515625-0.230224609375,0.570556640625t-0.530517578125,0.330322265625t-0.650634765625,0.16015625t-0.650634765625,0.0400390625q-0.70068359375,0-1.251220703125-0.2001953125t-0.870849609375-0.90087890625q-1.4814453125-4.724609375-2.852783203125-9.44921875t-2.772705078125-9.529296875q-0.46044921875,0.46044921875-0.9208984375,1.151123046875t-0.8408203125,1.271240234375q0,3.0029296875,0.14013671875,5.9658203125t0.48046875,5.9658203125q0.080078125,0.86083984375,0.270263671875,1.7216796875t0.190185546875,1.76171875q0,0.66064453125-0.6806640625,0.9208984375t-1.50146484375,0.26025390625q-0.90087890625,0-1.351318359375-0.18017578125t-0.640625-0.470458984375t-0.230224609375-0.640625t-0.1201171875-0.670654296875q-0.46044921875-3.1630859375-0.58056640625-6.256103515625t-0.1201171875-6.216064453125z M122.73460449219,113.03271484375q0-1.361328125,0.370361328125-2.62255859375t1.111083984375-2.252197265625t1.851806640625-1.58154296875t2.572509765625-0.590576171875q0.90087890625,0,1.991943359375,0.270263671875t2.052001953125,0.80078125t1.6015625,1.351318359375t0.640625,1.8818359375q0,0.50048828125-0.170166015625,0.7607421875t-0.690673828125,0.26025390625l-0.22021484375-0.0400390625q0.58056640625,1.5615234375,1.0009765625,3.203125t0.82080078125,3.283203125q0.16015625,0.3203125,0.240234375,0.570556640625t0.080078125,0.490478515625q0,0.3203125-0.18017578125,0.530517578125t-0.470458984375,0.310302734375t-0.6005859375,0.14013671875t-0.550537109375,0.0400390625q-0.86083984375,0-1.291259765625-0.30029296875t-0.62060546875-0.82080078125t-0.230224609375-1.171142578125t-0.16015625-1.311279296875q-0.240234375,0.78076171875-0.630615234375,1.521484375t-0.9208984375,1.331298828125t-1.251220703125,0.94091796875t-1.62158203125,0.350341796875q-1.3212890625,0-2.22216796875-0.7607421875t-1.451416015625-1.871826171875t-0.80078125-2.372314453125t-0.250244140625-2.34228515625z M125.57737792969,112.75244140625q0,0.74072265625,0.10009765625,1.5615234375t0.330322265625,1.62158203125t0.590576171875,1.511474609375t0.90087890625,1.251220703125q0.98095703125-1.06103515625,1.451416015625-2.58251953125t0.8408203125-2.932861328125t0.8408203125-2.42236328125t1.451416015625-1.010986328125q0.62060546875,0,1.041015625,0.22021484375q-0.2001953125-0.50048828125-0.66064453125-0.970947265625t-1.031005859375-0.86083984375t-1.18115234375-0.640625t-1.151123046875-0.250244140625q-0.16015625,0-0.370361328125,0.050048828125t-0.330322265625,0.010009765625q-0.82080078125,0.240234375-1.351318359375,0.830810546875t-0.86083984375,1.391357421875t-0.470458984375,1.6416015625t-0.14013671875,1.58154296875z M140.10495117188,113.1328125l0-0.58056640625q0-0.720703125,0.0400390625-1.361328125q0.0400390625-0.90087890625,0.0400390625-1.4814453125q0-0.3203125,0.0400390625-0.730712890625t0.2001953125-0.650634765625q0.2001953125-0.2001953125,0.470458984375-0.410400390625t0.590576171875-0.210205078125q1.02099609375,0,1.6015625,0.230224609375t0.62060546875,0.950927734375l0.080078125,0.62060546875q0.3603515625-0.86083984375,0.9609375-2.132080078125t1.391357421875-2.42236328125t1.78173828125-1.9619140625t2.092041015625-0.810791015625q1.02099609375,0,1.681640625,0.9609375t1.051025390625,2.452392578125t0.550537109375,3.3232421875t0.22021484375,3.593505859375t0.080078125,3.213134765625t0.14013671875,2.192138671875q0.080078125,0.62060546875,0.270263671875,1.311279296875t0.190185546875,1.271240234375q0,0.16015625-0.230224609375,0.310302734375t-0.490478515625,0.250244140625t-0.530517578125,0.16015625t-0.390380859375,0.06005859375q-0.78076171875,0-1.111083984375-1.171142578125t-0.410400390625-2.932861328125t-0.080078125-3.813720703125t-0.14013671875-3.813720703125t-0.570556640625-2.932861328125t-1.371337890625-1.211181640625q-0.86083984375,0-1.78173828125,1.111083984375t-1.58154296875,2.952880859375q-0.640625,1.841796875-0.880859375,4.18408203125q-0.080078125,0.74072265625-0.080078125,1.4814453125q0,1.62158203125,0.34033203125,3.2431640625q0.0400390625,0.2802734375-0.230224609375,0.42041015625t-0.670654296875,0.22021484375t-0.810791015625,0.10009765625t-0.630615234375,0.02001953125q-0.78076171875,0-1.251220703125-0.550537109375t-0.730712890625-1.411376953125t-0.350341796875-1.931884765625t-0.110107421875-2.112060546875z M158.29609863281,108.568359375q0-0.58056640625,0.330322265625-0.7607421875t0.830810546875-0.18017578125q0.82080078125,0,1.251220703125,0.310302734375t0.430419921875,1.091064453125q0,0.94091796875,0.14013671875,2.352294921875t0.410400390625,2.74267578125t0.640625,2.292236328125t0.770751953125,0.9609375q0.74072265625,0,1.311279296875-1.14111328125t1.0009765625-2.802734375t0.74072265625-3.573486328125t0.430419921875-3.413330078125q0.080078125-0.82080078125,0.390380859375-1.191162109375t1.131103515625-0.370361328125q0.94091796875,0,1.371337890625,0.78076171875t0.550537109375,1.921875q0.10009765625,0.98095703125,0.10009765625,2.0419921875l0,0.34033203125l0,0.80078125q0,0.7607421875,0.02001953125,1.361328125l0.58056640625,12.27197265625l0.080078125,2.0419921875q0.0400390625,0.2802734375,0.06005859375,0.530517578125t0.02001953125,0.530517578125q0,1.14111328125-0.490478515625,1.471435546875t-1.591552734375,0.330322265625q-0.240234375,0-0.610595703125-0.0400390625t-0.720703125-0.16015625t-0.6005859375-0.330322265625t-0.250244140625-0.530517578125l0.080078125-0.2001953125q0.10009765625-1.201171875,0.10009765625-2.5224609375l0-0.42041015625q-0.02001953125-1.5615234375-0.10009765625-3.1630859375t-0.18017578125-3.203125t-0.10009765625-3.0830078125q-0.2802734375,0.62060546875-0.650634765625,1.28125t-0.86083984375,1.191162109375t-1.111083984375,0.880859375t-1.4013671875,0.350341796875q-1.14111328125,0-1.8818359375-0.6005859375t-1.151123046875-1.5615234375t-0.590576171875-2.152099609375t-0.240234375-2.38232421875t-0.080078125-2.272216796875t-0.16015625-1.82177734375z M174.98578125,112.55224609375q0-1.841796875,0.430419921875-3.613525390625t0.730712890625-3.533447265625q0.080078125-0.46044921875,0.630615234375-0.570556640625t0.930908203125-0.110107421875q0.66064453125,0,1.06103515625,0.2001953125q0.16015625,0.080078125,0.30029296875,0.18017578125t0.14013671875,0.26025390625q0,1.7216796875-0.410400390625,3.36328125t-0.410400390625,3.4833984375q0,0.62060546875,0.090087890625,1.171142578125t0.170166015625,1.091064453125l0.1201171875,0.58056640625q0,0.16015625,0.02001953125,0.2802734375t0.06005859375,0.2802734375q0,0.3603515625-0.510498046875,0.490478515625t-0.890869140625,0.130126953125q-0.58056640625,0-1.071044921875-0.230224609375t-0.770751953125-0.790771484375l-0.2802734375-0.58056640625q-0.240234375-0.46044921875-0.240234375-1.031005859375t-0.10009765625-1.051025390625z M176.26703125,100.50048828125l0-0.38037109375q0-0.94091796875,0.470458984375-1.681640625t1.411376953125-0.74072265625q0.1201171875,0,0.230224609375,0.02001953125t0.230224609375,0.02001953125q0.240234375,0.0400390625,0.630615234375,0.190185546875t0.390380859375,0.470458984375l0,0.0400390625q-0.080078125,0.16015625-0.10009765625,0.330322265625t-0.10009765625,0.290283203125l0.0400390625-0.0400390625q-0.240234375,0.62060546875-0.390380859375,1.0009765625t-0.330322265625,0.610595703125t-0.450439453125,0.330322265625t-0.770751953125,0.10009765625q-0.080078125,0-0.2802734375-0.02001953125t-0.430419921875-0.080078125t-0.390380859375-0.16015625t-0.16015625-0.30029296875z M199.20961425781,120.03955078125q0-0.1201171875,0.080078125-0.850830078125t0.210205078125-1.78173828125t0.290283203125-2.26220703125t0.2802734375-2.292236328125t0.210205078125-1.90185546875t0.090087890625-1.10107421875q-0.16015625-0.080078125-0.390380859375-0.230224609375t-0.230224609375-0.350341796875q0-0.2802734375,0.270263671875-0.450439453125t0.470458984375-0.250244140625q0.080078125-1.02099609375,0.2001953125-2.8427734375t0.370361328125-3.933837890625t0.70068359375-4.2841796875t1.191162109375-3.94384765625t1.78173828125-2.892822265625t2.5625-1.12109375t2.5224609375,0.9609375t1.631591796875,2.50244140625t0.9609375,3.42333984375t0.50048828125,3.74365234375t0.210205078125,3.4833984375t0.080078125,2.6025390625q0.0400390625,0.62060546875,0.30029296875,0.830810546875t0.570556640625,0.290283203125t0.560546875,0.18017578125t0.250244140625,0.50048828125q0,0.46044921875-0.560546875,0.640625t-0.880859375,0.22021484375q0.2001953125,2.50244140625,0.550537109375,4.9248046875t0.930908203125,4.884765625q0.080078125,0.46044921875,0.22021484375,0.930908203125t0.14013671875,0.910888671875q0,0.3203125-0.22021484375,0.530517578125t-0.570556640625,0.330322265625t-0.70068359375,0.16015625t-0.590576171875,0.0400390625q-0.90087890625,0-1.521484375-0.34033203125t-0.82080078125-1.30126953125q-0.54052734375-2.58251953125-1.06103515625-5.42529296875q-0.4404296875-2.46240234375-0.4404296875-4.78466796875q0-0.3603515625,0.02001953125-0.720703125q-1.681640625,0-3.38330078125,0.080078125t-3.26318359375,0.6005859375q-0.0400390625,0.54052734375-0.2001953125,2.0419921875t-0.3603515625,3.22314453125t-0.410400390625,3.293212890625t-0.250244140625,2.232177734375q-0.0400390625,0.2802734375-0.410400390625,0.530517578125t-0.80078125,0.270263671875t-0.7607421875-0.270263671875t-0.330322265625-1.031005859375z M202.95326660156,107.90771484375q1.5615234375-0.3603515625,3.133056640625-0.42041015625t3.173095703125-0.14013671875q-0.080078125-0.50048828125-0.0400390625-1.031005859375t0.0400390625-1.071044921875q0-1.18115234375-0.06005859375-2.74267578125t-0.18017578125-3.1630859375t-0.310302734375-3.153076171875t-0.430419921875-2.7626953125t-0.510498046875-1.931884765625t-0.590576171875-0.720703125q-0.62060546875,0.0400390625-1.171142578125,1.071044921875t-1.0009765625,2.62255859375t-0.82080078125,3.5634765625t-0.62060546875,3.853759765625t-0.410400390625,3.50341796875t-0.2001953125,2.5224609375z M219.40271484375,113.1328125l0-0.58056640625q0-0.720703125,0.0400390625-1.361328125q0.0400390625-0.90087890625,0.0400390625-1.4814453125q0-0.3203125,0.0400390625-0.730712890625t0.2001953125-0.650634765625q0.2001953125-0.2001953125,0.470458984375-0.410400390625t0.590576171875-0.210205078125q1.02099609375,0,1.6015625,0.230224609375t0.62060546875,0.950927734375l0.080078125,0.62060546875q0.3603515625-0.86083984375,0.9609375-2.132080078125t1.391357421875-2.42236328125t1.78173828125-1.9619140625t2.092041015625-0.810791015625q1.02099609375,0,1.681640625,0.9609375t1.051025390625,2.452392578125t0.550537109375,3.3232421875t0.22021484375,3.593505859375t0.080078125,3.213134765625t0.14013671875,2.192138671875q0.080078125,0.62060546875,0.270263671875,1.311279296875t0.190185546875,1.271240234375q0,0.16015625-0.230224609375,0.310302734375t-0.490478515625,0.250244140625t-0.530517578125,0.16015625t-0.390380859375,0.06005859375q-0.78076171875,0-1.111083984375-1.171142578125t-0.410400390625-2.932861328125t-0.080078125-3.813720703125t-0.14013671875-3.813720703125t-0.570556640625-2.932861328125t-1.371337890625-1.211181640625q-0.86083984375,0-1.78173828125,1.111083984375t-1.58154296875,2.952880859375q-0.640625,1.841796875-0.880859375,4.18408203125q-0.080078125,0.74072265625-0.080078125,1.4814453125q0,1.62158203125,0.34033203125,3.2431640625q0.0400390625,0.2802734375-0.230224609375,0.42041015625t-0.670654296875,0.22021484375t-0.810791015625,0.10009765625t-0.630615234375,0.02001953125q-0.78076171875,0-1.251220703125-0.550537109375t-0.730712890625-1.411376953125t-0.350341796875-1.931884765625t-0.110107421875-2.112060546875z M237.59386230469,112.33203125q0-1.10107421875,0.210205078125-2.352294921875t0.720703125-2.292236328125t1.411376953125-1.7216796875t2.30224609375-0.6806640625q0.94091796875,0,1.82177734375,0.310302734375t1.66162109375,0.850830078125q0.240234375-0.400390625,0.7607421875-0.490478515625t0.9208984375-0.090087890625q0.16015625,0,0.450439453125,0.02001953125t0.570556640625,0.1201171875t0.490478515625,0.240234375t0.250244140625,0.400390625q0.16015625,1.4013671875,0.22021484375,2.792724609375t0.18017578125,2.772705078125q0.2001953125,2.58251953125,0.62060546875,5.10498046875t0.42041015625,5.10498046875q0,1.22119140625-0.110107421875,2.642578125t-0.58056640625,2.632568359375t-1.371337890625,2.011962890625t-2.50244140625,0.80078125q-1.44140625,0-2.212158203125-0.510498046875t-1.391357421875-1.711669921875q0.0400390625-0.400390625,0.510498046875-0.530517578125t0.810791015625-0.130126953125q0.3203125,0,0.650634765625,0.06005859375t0.530517578125,0.2001953125l0.50048828125,0.3203125q0.74072265625-1.521484375,0.90087890625-3.3232421875t0.16015625-3.4833984375q0-1.4013671875-0.14013671875-2.772705078125t-0.2802734375-2.752685546875q-1.4013671875,2.54248046875-4.26416015625,2.54248046875q-1.3212890625,0-2.152099609375-0.560546875t-1.28125-1.42138671875t-0.62060546875-1.94189453125t-0.170166015625-2.162109375z M240.05626464844,112.51220703125q0,0.50048828125,0.0400390625,1.291259765625t0.210205078125,1.551513671875t0.490478515625,1.311279296875t0.90087890625,0.550537109375q1.10107421875,0,1.74169921875-0.86083984375t1.010986328125-2.052001953125t0.590576171875-2.46240234375t0.560546875-2.092041015625q-0.0400390625-0.2802734375-0.0400390625-0.550537109375l0-0.550537109375q-0.46044921875-0.86083984375-1.34130859375-1.491455078125t-1.82177734375-0.850830078125q-0.1201171875-0.02001953125-0.22021484375-0.02001953125q-0.560546875,0-0.9208984375,0.66064453125q-0.46044921875,0.80078125-0.720703125,1.911865234375t-0.370361328125,2.192138671875t-0.110107421875,1.46142578125z M254.70395507812,113.853515625q0-1.4013671875,0.310302734375-3.30322265625t1.051025390625-3.603515625t1.951904296875-2.892822265625t3.052978515625-1.191162109375q1.7216796875,0,2.58251953125,0.990966796875t0.86083984375,2.672607421875q0,1.10107421875-0.410400390625,2.412353515625t-1.171142578125,2.482421875t-1.8017578125,1.951904296875t-2.322265625,0.78076171875l-0.5205078125-0.0400390625q0,0.54052734375,0.16015625,1.451416015625t0.470458984375,1.811767578125t0.80078125,1.58154296875t1.191162109375,0.6806640625q1.02099609375,0,1.9619140625-0.82080078125t1.78173828125-1.82177734375t1.5615234375-1.82177734375t1.3212890625-0.82080078125q0.3203125,0,0.66064453125,0.10009765625t0.38037109375,0.560546875q0,0.2802734375-0.150146484375,0.46044921875t-0.270263671875,0.400390625q-0.62060546875,1.06103515625-1.351318359375,2.02197265625t-1.651611328125,1.74169921875t-2.011962890625,1.231201171875t-2.412353515625,0.450439453125q-1.7216796875,0-2.86279296875-0.610595703125t-1.841796875-1.6416015625t-1.010986328125-2.38232421875t-0.310302734375-2.832763671875z M258.28745117187,112.33203125l0.560546875,0.50048828125q0.400390625,0.3603515625,0.80078125,0.16015625t0.720703125-0.730712890625t0.590576171875-1.311279296875t0.48046875-1.6015625t0.310302734375-1.6015625t0.10009765625-1.30126953125l0-0.6806640625t-0.06005859375-0.720703125t-0.210205078125-0.570556640625t-0.470458984375-0.290283203125q-0.10009765625-0.02001953125-0.18017578125-0.02001953125q-0.6806640625,0-1.1611328125,0.86083984375q-0.5205078125,0.9609375-0.8408203125,2.332275390625t-0.46044921875,2.812744140625t-0.18017578125,2.162109375z M271.43367675781,120.1396484375q0-0.58056640625,0.050048828125-1.22119140625t0.090087890625-1.201171875l0.1201171875-3.0029296875q0.2001953125-3.603515625,0.490478515625-7.0869140625t0.490478515625-7.046875q0.1201171875-1.9619140625,0.18017578125-3.853759765625t0.18017578125-3.853759765625q-0.080078125-0.16015625-0.080078125-0.22021484375q0-0.2802734375,0.210205078125-0.4404296875t0.490478515625-0.270263671875t0.590576171875-0.150146484375t0.470458984375-0.0400390625l0.46044921875,0q0.62060546875,0.080078125,0.90087890625,0.390380859375t0.3603515625,0.74072265625t0.0400390625,0.9208984375t-0.0400390625,0.910888671875q0,2.90283203125-0.14013671875,5.915771484375t-0.3203125,6.0458984375t-0.330322265625,6.06591796875t-0.150146484375,5.995849609375l0,1.4013671875q0,0.94091796875-0.530517578125,1.2412109375t-1.471435546875,0.30029296875q-0.82080078125,0-1.44140625-0.3603515625t-0.62060546875-1.18115234375z M280.61603515625,113.03271484375q0-1.361328125,0.370361328125-2.62255859375t1.111083984375-2.252197265625t1.851806640625-1.58154296875t2.572509765625-0.590576171875q0.90087890625,0,1.991943359375,0.270263671875t2.052001953125,0.80078125t1.6015625,1.351318359375t0.640625,1.8818359375q0,0.50048828125-0.170166015625,0.7607421875t-0.690673828125,0.26025390625l-0.22021484375-0.0400390625q0.58056640625,1.5615234375,1.0009765625,3.203125t0.82080078125,3.283203125q0.16015625,0.3203125,0.240234375,0.570556640625t0.080078125,0.490478515625q0,0.3203125-0.18017578125,0.530517578125t-0.470458984375,0.310302734375t-0.6005859375,0.14013671875t-0.550537109375,0.0400390625q-0.86083984375,0-1.291259765625-0.30029296875t-0.62060546875-0.82080078125t-0.230224609375-1.171142578125t-0.16015625-1.311279296875q-0.240234375,0.78076171875-0.630615234375,1.521484375t-0.9208984375,1.331298828125t-1.251220703125,0.94091796875t-1.62158203125,0.350341796875q-1.3212890625,0-2.22216796875-0.7607421875t-1.451416015625-1.871826171875t-0.80078125-2.372314453125t-0.250244140625-2.34228515625z M283.45880859375,112.75244140625q0,0.74072265625,0.10009765625,1.5615234375t0.330322265625,1.62158203125t0.590576171875,1.511474609375t0.90087890625,1.251220703125q0.98095703125-1.06103515625,1.451416015625-2.58251953125t0.8408203125-2.932861328125t0.8408203125-2.42236328125t1.451416015625-1.010986328125q0.62060546875,0,1.041015625,0.22021484375q-0.2001953125-0.50048828125-0.66064453125-0.970947265625t-1.031005859375-0.86083984375t-1.18115234375-0.640625t-1.151123046875-0.250244140625q-0.16015625,0-0.370361328125,0.050048828125t-0.330322265625,0.010009765625q-0.82080078125,0.240234375-1.351318359375,0.830810546875t-0.86083984375,1.391357421875t-0.470458984375,1.6416015625t-0.14013671875,1.58154296875z"/><path fill="#" d=""/></svg>
